<!DOCTYPE svg PUBLIC "-//W3C//DTD SVG 20010904//EN" "http://www.w3.org/TR/2001/REC-SVG-20010904/DTD/svg10.dtd">
<svg version="1.0" xmlns="http://www.w3.org/2000/svg" width="580px" height="423px" viewBox="0 0 5800 4230" preserveAspectRatio="xMidYMid meet">
<g id="layer1" fill="#000000" stroke="none">
 <path d="M3160 4091 c-25 -4 -99 -35 -166 -68 -157 -80 -855 -505 -1499 -912 -477 -303 -530 -334 -837 -487 l-328 -164 -60 -119 c-52 -106 -60 -129 -66 -198 -6 -76 -5 -81 29 -148 67 -131 116 -168 492 -365 182 -96 544 -298 805 -450 261 -152 599 -348 750 -435 151 -88 379 -226 505 -309 186 -121 255 -160 359 -203 71 -29 134 -53 140 -53 6 0 39 22 73 48 34 26 73 55 86 64 34 24 45 93 54 343 l8 210 890 5 890 5 111 73 c107 69 114 76 164 158 93 152 89 92 85 1129 l-3 905 -48 77 c-26 43 -74 108 -106 144 -54 62 -64 69 -148 99 l-90 33 -864 -8 c-558 -5 -866 -4 -869 2 -4 6 -11 124 -17 264 l-11 254 -30 47 c-28 44 -33 47 -93 57 -68 12 -134 12 -206 2z"/>
 </g>

</svg>